<mxfile host="app.diagrams.net" modified="2022-07-26T08:28:37.769Z" agent="5.0 (Macintosh; Intel Mac OS X 10_15_7) AppleWebKit/537.36 (KHTML, like Gecko) Chrome/103.0.0.0 Safari/537.36" etag="9zp3yko_olghmPcCZwaG" version="20.1.1" type="github">
  <diagram id="aKXpoWnLadXdCX4bPvJR" name="第 1 页">
    <mxGraphModel dx="738" dy="578" grid="1" gridSize="10" guides="1" tooltips="1" connect="1" arrows="1" fold="1" page="1" pageScale="1" pageWidth="827" pageHeight="1169" math="0" shadow="0">
      <root>
        <mxCell id="0" />
        <mxCell id="1" parent="0" />
        <mxCell id="UGZXlupw-9iuZTmBvl_z-26" style="edgeStyle=none;rounded=0;orthogonalLoop=1;jettySize=auto;html=1;entryX=0;entryY=0.25;entryDx=0;entryDy=0;" edge="1" parent="1" source="UGZXlupw-9iuZTmBvl_z-1" target="UGZXlupw-9iuZTmBvl_z-3">
          <mxGeometry relative="1" as="geometry" />
        </mxCell>
        <mxCell id="UGZXlupw-9iuZTmBvl_z-27" style="edgeStyle=none;rounded=0;orthogonalLoop=1;jettySize=auto;html=1;entryX=0;entryY=0.5;entryDx=0;entryDy=0;" edge="1" parent="1" source="UGZXlupw-9iuZTmBvl_z-1" target="UGZXlupw-9iuZTmBvl_z-4">
          <mxGeometry relative="1" as="geometry" />
        </mxCell>
        <mxCell id="UGZXlupw-9iuZTmBvl_z-28" style="edgeStyle=none;rounded=0;orthogonalLoop=1;jettySize=auto;html=1;entryX=0;entryY=0.5;entryDx=0;entryDy=0;" edge="1" parent="1" source="UGZXlupw-9iuZTmBvl_z-1" target="UGZXlupw-9iuZTmBvl_z-8">
          <mxGeometry relative="1" as="geometry" />
        </mxCell>
        <mxCell id="UGZXlupw-9iuZTmBvl_z-1" value="用户" style="shape=umlActor;verticalLabelPosition=bottom;verticalAlign=top;html=1;outlineConnect=0;" vertex="1" parent="1">
          <mxGeometry x="60" y="310" width="30" height="60" as="geometry" />
        </mxCell>
        <mxCell id="UGZXlupw-9iuZTmBvl_z-5" value="" style="edgeStyle=orthogonalEdgeStyle;rounded=0;orthogonalLoop=1;jettySize=auto;html=1;" edge="1" parent="1" source="UGZXlupw-9iuZTmBvl_z-3" target="UGZXlupw-9iuZTmBvl_z-4">
          <mxGeometry relative="1" as="geometry" />
        </mxCell>
        <mxCell id="UGZXlupw-9iuZTmBvl_z-3" value="裂变拉新&lt;br&gt;（现金奖励）" style="rounded=0;whiteSpace=wrap;html=1;" vertex="1" parent="1">
          <mxGeometry x="180" y="110" width="90" height="50" as="geometry" />
        </mxCell>
        <mxCell id="UGZXlupw-9iuZTmBvl_z-20" value="" style="edgeStyle=none;rounded=0;orthogonalLoop=1;jettySize=auto;html=1;" edge="1" parent="1" source="UGZXlupw-9iuZTmBvl_z-4" target="UGZXlupw-9iuZTmBvl_z-8">
          <mxGeometry relative="1" as="geometry" />
        </mxCell>
        <mxCell id="UGZXlupw-9iuZTmBvl_z-4" value="完成任务&lt;br&gt;获得红包奖励" style="rounded=0;whiteSpace=wrap;html=1;" vertex="1" parent="1">
          <mxGeometry x="180" y="260" width="90" height="50" as="geometry" />
        </mxCell>
        <mxCell id="UGZXlupw-9iuZTmBvl_z-22" style="edgeStyle=none;rounded=0;orthogonalLoop=1;jettySize=auto;html=1;" edge="1" parent="1" source="UGZXlupw-9iuZTmBvl_z-6" target="UGZXlupw-9iuZTmBvl_z-1">
          <mxGeometry relative="1" as="geometry">
            <mxPoint x="130" y="340" as="targetPoint" />
          </mxGeometry>
        </mxCell>
        <mxCell id="UGZXlupw-9iuZTmBvl_z-6" value="提现" style="rounded=0;whiteSpace=wrap;html=1;" vertex="1" parent="1">
          <mxGeometry x="180" y="535" width="90" height="50" as="geometry" />
        </mxCell>
        <mxCell id="UGZXlupw-9iuZTmBvl_z-18" style="edgeStyle=none;rounded=0;orthogonalLoop=1;jettySize=auto;html=1;entryX=0.5;entryY=1;entryDx=0;entryDy=0;exitX=1;exitY=0.75;exitDx=0;exitDy=0;" edge="1" parent="1" source="UGZXlupw-9iuZTmBvl_z-8" target="UGZXlupw-9iuZTmBvl_z-10">
          <mxGeometry relative="1" as="geometry" />
        </mxCell>
        <mxCell id="UGZXlupw-9iuZTmBvl_z-21" value="" style="edgeStyle=none;rounded=0;orthogonalLoop=1;jettySize=auto;html=1;" edge="1" parent="1" source="UGZXlupw-9iuZTmBvl_z-8" target="UGZXlupw-9iuZTmBvl_z-6">
          <mxGeometry relative="1" as="geometry" />
        </mxCell>
        <mxCell id="UGZXlupw-9iuZTmBvl_z-8" value="观看激励广告&lt;br&gt;获得红包奖励" style="rounded=0;whiteSpace=wrap;html=1;" vertex="1" parent="1">
          <mxGeometry x="180" y="380" width="90" height="50" as="geometry" />
        </mxCell>
        <mxCell id="UGZXlupw-9iuZTmBvl_z-12" style="rounded=0;orthogonalLoop=1;jettySize=auto;html=1;entryX=1;entryY=0.5;entryDx=0;entryDy=0;" edge="1" parent="1" source="UGZXlupw-9iuZTmBvl_z-10" target="UGZXlupw-9iuZTmBvl_z-3">
          <mxGeometry relative="1" as="geometry" />
        </mxCell>
        <mxCell id="UGZXlupw-9iuZTmBvl_z-14" style="edgeStyle=none;rounded=0;orthogonalLoop=1;jettySize=auto;html=1;entryX=1;entryY=0.5;entryDx=0;entryDy=0;" edge="1" parent="1" source="UGZXlupw-9iuZTmBvl_z-10" target="UGZXlupw-9iuZTmBvl_z-4">
          <mxGeometry relative="1" as="geometry" />
        </mxCell>
        <mxCell id="UGZXlupw-9iuZTmBvl_z-16" style="edgeStyle=none;rounded=0;orthogonalLoop=1;jettySize=auto;html=1;entryX=1;entryY=0.25;entryDx=0;entryDy=0;" edge="1" parent="1" source="UGZXlupw-9iuZTmBvl_z-10" target="UGZXlupw-9iuZTmBvl_z-8">
          <mxGeometry relative="1" as="geometry" />
        </mxCell>
        <mxCell id="UGZXlupw-9iuZTmBvl_z-10" value="公司" style="ellipse;whiteSpace=wrap;html=1;aspect=fixed;" vertex="1" parent="1">
          <mxGeometry x="355" y="300" width="80" height="80" as="geometry" />
        </mxCell>
        <mxCell id="UGZXlupw-9iuZTmBvl_z-11" value="引导、承接" style="text;html=1;align=center;verticalAlign=middle;resizable=0;points=[];autosize=1;strokeColor=none;fillColor=none;" vertex="1" parent="1">
          <mxGeometry x="150" y="210" width="80" height="30" as="geometry" />
        </mxCell>
        <mxCell id="UGZXlupw-9iuZTmBvl_z-13" value="成本" style="text;html=1;align=center;verticalAlign=middle;resizable=0;points=[];autosize=1;strokeColor=none;fillColor=none;" vertex="1" parent="1">
          <mxGeometry x="320" y="190" width="50" height="30" as="geometry" />
        </mxCell>
        <mxCell id="UGZXlupw-9iuZTmBvl_z-15" value="成本" style="text;html=1;align=center;verticalAlign=middle;resizable=0;points=[];autosize=1;strokeColor=none;fillColor=none;" vertex="1" parent="1">
          <mxGeometry x="290" y="270" width="50" height="30" as="geometry" />
        </mxCell>
        <mxCell id="UGZXlupw-9iuZTmBvl_z-17" value="成本" style="text;html=1;align=center;verticalAlign=middle;resizable=0;points=[];autosize=1;strokeColor=none;fillColor=none;" vertex="1" parent="1">
          <mxGeometry x="280" y="340" width="50" height="30" as="geometry" />
        </mxCell>
        <mxCell id="UGZXlupw-9iuZTmBvl_z-19" value="收入" style="text;html=1;align=center;verticalAlign=middle;resizable=0;points=[];autosize=1;strokeColor=none;fillColor=none;" vertex="1" parent="1">
          <mxGeometry x="320" y="400" width="50" height="30" as="geometry" />
        </mxCell>
        <mxCell id="UGZXlupw-9iuZTmBvl_z-23" value="收入" style="text;html=1;align=center;verticalAlign=middle;resizable=0;points=[];autosize=1;strokeColor=none;fillColor=none;" vertex="1" parent="1">
          <mxGeometry x="100" y="440" width="50" height="30" as="geometry" />
        </mxCell>
        <mxCell id="UGZXlupw-9iuZTmBvl_z-29" value="引导" style="text;html=1;align=center;verticalAlign=middle;resizable=0;points=[];autosize=1;strokeColor=none;fillColor=none;" vertex="1" parent="1">
          <mxGeometry x="180" y="325" width="50" height="30" as="geometry" />
        </mxCell>
        <mxCell id="UGZXlupw-9iuZTmBvl_z-30" value="收益兑换" style="text;html=1;align=center;verticalAlign=middle;resizable=0;points=[];autosize=1;strokeColor=none;fillColor=none;" vertex="1" parent="1">
          <mxGeometry x="220" y="470" width="70" height="30" as="geometry" />
        </mxCell>
      </root>
    </mxGraphModel>
  </diagram>
</mxfile>
